<mxfile host="app.diagrams.net" agent="Mozilla/5.0 (Macintosh; Intel Mac OS X 10_15_7) AppleWebKit/537.36 (KHTML, like Gecko) Chrome/136.0.0.0 Safari/537.36 Edg/136.0.0.0" version="27.0.6">
  <diagram name="Page-1" id="4IYnd5cIy3Ya2vOHTBwL">
    <mxGraphModel dx="2060" dy="728" grid="1" gridSize="10" guides="1" tooltips="1" connect="1" arrows="1" fold="1" page="1" pageScale="1" pageWidth="850" pageHeight="1100" math="0" shadow="0">
      <root>
        <mxCell id="0" />
        <mxCell id="1" parent="0" />
        <mxCell id="f_G7LNEbFlK-3ISZZQ7I-1" value="&lt;font style=&quot;font-size: 14px;&quot;&gt;State obj;&lt;/font&gt;&lt;div&gt;&lt;font style=&quot;font-size: 14px;&quot;&gt;List&amp;lt;Coins&amp;gt; coins;&lt;/font&gt;&lt;/div&gt;&lt;div&gt;&lt;font style=&quot;font-size: 14px;&quot;&gt;Inventory inventory;&lt;/font&gt;&lt;/div&gt;" style="rounded=0;whiteSpace=wrap;html=1;" vertex="1" parent="1">
          <mxGeometry x="330" y="160" width="190" height="100" as="geometry" />
        </mxCell>
        <mxCell id="f_G7LNEbFlK-3ISZZQ7I-2" value="&lt;font style=&quot;font-size: 14px;&quot;&gt;Vending Machine&lt;/font&gt;" style="text;html=1;align=center;verticalAlign=middle;whiteSpace=wrap;rounded=0;" vertex="1" parent="1">
          <mxGeometry x="370" y="120" width="127.5" height="30" as="geometry" />
        </mxCell>
        <mxCell id="f_G7LNEbFlK-3ISZZQ7I-3" value="&lt;font style=&quot;font-size: 14px;&quot;&gt;// All Operations declared here for diffrent states&lt;/font&gt;" style="rounded=0;whiteSpace=wrap;html=1;" vertex="1" parent="1">
          <mxGeometry x="750" y="150" width="190" height="100" as="geometry" />
        </mxCell>
        <mxCell id="f_G7LNEbFlK-3ISZZQ7I-4" value="&lt;span style=&quot;font-size: 14px;&quot;&gt;State&lt;/span&gt;" style="text;html=1;align=center;verticalAlign=middle;whiteSpace=wrap;rounded=0;" vertex="1" parent="1">
          <mxGeometry x="780" y="110" width="127.5" height="30" as="geometry" />
        </mxCell>
        <mxCell id="f_G7LNEbFlK-3ISZZQ7I-5" value="" style="rounded=0;whiteSpace=wrap;html=1;" vertex="1" parent="1">
          <mxGeometry x="470" y="410" width="140" height="80" as="geometry" />
        </mxCell>
        <mxCell id="f_G7LNEbFlK-3ISZZQ7I-6" value="&lt;font style=&quot;font-size: 14px;&quot;&gt;Ideal State&lt;/font&gt;" style="text;html=1;align=center;verticalAlign=middle;whiteSpace=wrap;rounded=0;" vertex="1" parent="1">
          <mxGeometry x="510" y="435" width="80" height="30" as="geometry" />
        </mxCell>
        <mxCell id="f_G7LNEbFlK-3ISZZQ7I-7" value="" style="rounded=0;whiteSpace=wrap;html=1;" vertex="1" parent="1">
          <mxGeometry x="670" y="410" width="140" height="80" as="geometry" />
        </mxCell>
        <mxCell id="f_G7LNEbFlK-3ISZZQ7I-8" value="&lt;font style=&quot;font-size: 14px;&quot;&gt;Has Money State&lt;/font&gt;" style="text;html=1;align=center;verticalAlign=middle;whiteSpace=wrap;rounded=0;" vertex="1" parent="1">
          <mxGeometry x="710" y="435" width="80" height="30" as="geometry" />
        </mxCell>
        <mxCell id="f_G7LNEbFlK-3ISZZQ7I-9" value="" style="rounded=0;whiteSpace=wrap;html=1;" vertex="1" parent="1">
          <mxGeometry x="860" y="410" width="140" height="80" as="geometry" />
        </mxCell>
        <mxCell id="f_G7LNEbFlK-3ISZZQ7I-10" value="&lt;font style=&quot;font-size: 14px;&quot;&gt;Selection State&lt;/font&gt;" style="text;html=1;align=center;verticalAlign=middle;whiteSpace=wrap;rounded=0;" vertex="1" parent="1">
          <mxGeometry x="890" y="435" width="80" height="30" as="geometry" />
        </mxCell>
        <mxCell id="f_G7LNEbFlK-3ISZZQ7I-11" value="" style="rounded=0;whiteSpace=wrap;html=1;" vertex="1" parent="1">
          <mxGeometry x="1060" y="410" width="140" height="80" as="geometry" />
        </mxCell>
        <mxCell id="f_G7LNEbFlK-3ISZZQ7I-12" value="&lt;span style=&quot;font-size: 14px;&quot;&gt;Dispense State&lt;/span&gt;" style="text;html=1;align=center;verticalAlign=middle;whiteSpace=wrap;rounded=0;" vertex="1" parent="1">
          <mxGeometry x="1100" y="435" width="80" height="30" as="geometry" />
        </mxCell>
        <mxCell id="f_G7LNEbFlK-3ISZZQ7I-13" value="" style="shape=flexArrow;endArrow=classic;html=1;rounded=0;" edge="1" parent="1">
          <mxGeometry width="50" height="50" relative="1" as="geometry">
            <mxPoint x="590" y="400" as="sourcePoint" />
            <mxPoint x="750" y="260" as="targetPoint" />
          </mxGeometry>
        </mxCell>
        <mxCell id="f_G7LNEbFlK-3ISZZQ7I-14" value="" style="shape=flexArrow;endArrow=classic;html=1;rounded=0;" edge="1" parent="1">
          <mxGeometry width="50" height="50" relative="1" as="geometry">
            <mxPoint x="1090" y="400" as="sourcePoint" />
            <mxPoint x="920" y="260" as="targetPoint" />
          </mxGeometry>
        </mxCell>
        <mxCell id="f_G7LNEbFlK-3ISZZQ7I-15" value="" style="shape=flexArrow;endArrow=classic;html=1;rounded=0;" edge="1" parent="1">
          <mxGeometry width="50" height="50" relative="1" as="geometry">
            <mxPoint x="750" y="400" as="sourcePoint" />
            <mxPoint x="810" y="270" as="targetPoint" />
          </mxGeometry>
        </mxCell>
        <mxCell id="f_G7LNEbFlK-3ISZZQ7I-16" value="" style="shape=flexArrow;endArrow=classic;html=1;rounded=0;" edge="1" parent="1">
          <mxGeometry width="50" height="50" relative="1" as="geometry">
            <mxPoint x="890" y="400" as="sourcePoint" />
            <mxPoint x="870" y="270" as="targetPoint" />
          </mxGeometry>
        </mxCell>
        <mxCell id="f_G7LNEbFlK-3ISZZQ7I-17" value="" style="endArrow=classic;html=1;rounded=0;exitX=1;exitY=0.38;exitDx=0;exitDy=0;exitPerimeter=0;entryX=0;entryY=0.5;entryDx=0;entryDy=0;" edge="1" parent="1" source="f_G7LNEbFlK-3ISZZQ7I-1" target="f_G7LNEbFlK-3ISZZQ7I-3">
          <mxGeometry width="50" height="50" relative="1" as="geometry">
            <mxPoint x="570" y="410" as="sourcePoint" />
            <mxPoint x="620" y="360" as="targetPoint" />
          </mxGeometry>
        </mxCell>
        <mxCell id="f_G7LNEbFlK-3ISZZQ7I-18" value="&lt;pre lang=&quot;java&quot; class=&quot;code highlight&quot;&gt;&lt;font style=&quot;font-size: 14px;&quot; face=&quot;Helvetica&quot;&gt;&lt;span class=&quot;hljs-keyword&quot;&gt;enum&lt;/span&gt;&lt;span class=&quot;&quot;&gt; &lt;/span&gt;&lt;span class=&quot;hljs-title.class&quot;&gt;ItemType&lt;/span&gt;&lt;span class=&quot;&quot;&gt; {&lt;/span&gt;&lt;br/&gt;&lt;br/&gt;&lt;span class=&quot;&quot;&gt;    COKE,&lt;/span&gt;&lt;br/&gt;&lt;span class=&quot;&quot;&gt;    PEPSI,&lt;/span&gt;&lt;br/&gt;&lt;span class=&quot;&quot;&gt;    JUICE,&lt;/span&gt;&lt;br/&gt;&lt;span class=&quot;&quot;&gt;    SODA;&lt;/span&gt;&lt;br/&gt;&lt;span class=&quot;&quot;&gt;}&lt;/span&gt;&lt;/font&gt;&lt;br/&gt;&lt;/pre&gt;" style="text;html=1;align=center;verticalAlign=middle;whiteSpace=wrap;rounded=0;" vertex="1" parent="1">
          <mxGeometry x="250" y="520" width="120" height="120" as="geometry" />
        </mxCell>
        <mxCell id="f_G7LNEbFlK-3ISZZQ7I-20" value="" style="rounded=0;whiteSpace=wrap;html=1;" vertex="1" parent="1">
          <mxGeometry x="160" y="410" width="140" height="80" as="geometry" />
        </mxCell>
        <mxCell id="f_G7LNEbFlK-3ISZZQ7I-21" value="&lt;span style=&quot;font-size: 14px;&quot;&gt;ItemType type;&lt;/span&gt;&lt;div&gt;&lt;span style=&quot;font-size: 14px;&quot;&gt;int price&lt;/span&gt;&lt;/div&gt;" style="text;html=1;align=center;verticalAlign=middle;whiteSpace=wrap;rounded=0;" vertex="1" parent="1">
          <mxGeometry x="180" y="430" width="100" height="35" as="geometry" />
        </mxCell>
        <mxCell id="f_G7LNEbFlK-3ISZZQ7I-22" value="&lt;span style=&quot;font-size: 14px;&quot;&gt;Item&lt;/span&gt;" style="text;html=1;align=center;verticalAlign=middle;whiteSpace=wrap;rounded=0;" vertex="1" parent="1">
          <mxGeometry x="166.25" y="370" width="127.5" height="30" as="geometry" />
        </mxCell>
        <mxCell id="f_G7LNEbFlK-3ISZZQ7I-23" value="" style="rounded=0;whiteSpace=wrap;html=1;" vertex="1" parent="1">
          <mxGeometry x="-70" y="410" width="140" height="80" as="geometry" />
        </mxCell>
        <mxCell id="f_G7LNEbFlK-3ISZZQ7I-24" value="&lt;pre lang=&quot;java&quot; class=&quot;code highlight&quot;&gt;&lt;font style=&quot;font-size: 14px;&quot; face=&quot;Helvetica&quot;&gt;&lt;span class=&quot;&quot;&gt; &lt;/span&gt;&lt;span class=&quot;hljs-type&quot;&gt;int&lt;/span&gt;&lt;span class=&quot;&quot;&gt; code;&lt;/span&gt;&lt;br&gt;&lt;span class=&quot;&quot;&gt;    Item item;&lt;/span&gt;&lt;br&gt;&lt;span class=&quot;&quot;&gt;    &lt;/span&gt;&lt;span class=&quot;hljs-type&quot;&gt;boolean&lt;/span&gt;&lt;span class=&quot;&quot;&gt; soldOut;&lt;/span&gt;&lt;/font&gt;&lt;br&gt;&lt;/pre&gt;" style="text;html=1;align=center;verticalAlign=middle;whiteSpace=wrap;rounded=0;" vertex="1" parent="1">
          <mxGeometry x="-50" y="430" width="100" height="35" as="geometry" />
        </mxCell>
        <mxCell id="f_G7LNEbFlK-3ISZZQ7I-25" value="&lt;span style=&quot;font-size: 14px;&quot;&gt;Item Shelf&lt;/span&gt;" style="text;html=1;align=center;verticalAlign=middle;whiteSpace=wrap;rounded=0;" vertex="1" parent="1">
          <mxGeometry x="-63.75" y="370" width="127.5" height="30" as="geometry" />
        </mxCell>
        <mxCell id="f_G7LNEbFlK-3ISZZQ7I-26" value="" style="endArrow=classic;html=1;rounded=0;exitX=0.993;exitY=0.375;exitDx=0;exitDy=0;exitPerimeter=0;entryX=0;entryY=0.375;entryDx=0;entryDy=0;entryPerimeter=0;" edge="1" parent="1" source="f_G7LNEbFlK-3ISZZQ7I-23" target="f_G7LNEbFlK-3ISZZQ7I-20">
          <mxGeometry width="50" height="50" relative="1" as="geometry">
            <mxPoint x="390" y="420" as="sourcePoint" />
            <mxPoint x="440" y="370" as="targetPoint" />
          </mxGeometry>
        </mxCell>
        <mxCell id="f_G7LNEbFlK-3ISZZQ7I-27" value="&lt;code&gt;&lt;font style=&quot;font-size: 14px;&quot; face=&quot;Helvetica&quot;&gt;ItemShelf[] inventory&lt;/font&gt;&lt;/code&gt;" style="rounded=0;whiteSpace=wrap;html=1;" vertex="1" parent="1">
          <mxGeometry x="-63.75" y="230" width="150" height="90" as="geometry" />
        </mxCell>
        <mxCell id="f_G7LNEbFlK-3ISZZQ7I-28" value="&lt;span style=&quot;font-size: 14px;&quot;&gt;Inventory&lt;/span&gt;" style="text;html=1;align=center;verticalAlign=middle;whiteSpace=wrap;rounded=0;" vertex="1" parent="1">
          <mxGeometry x="-52.5" y="195" width="127.5" height="30" as="geometry" />
        </mxCell>
        <mxCell id="f_G7LNEbFlK-3ISZZQ7I-29" value="" style="edgeStyle=segmentEdgeStyle;endArrow=classic;html=1;curved=0;rounded=0;endSize=8;startSize=8;exitX=-0.005;exitY=0.08;exitDx=0;exitDy=0;exitPerimeter=0;entryX=0.404;entryY=0.033;entryDx=0;entryDy=0;entryPerimeter=0;" edge="1" parent="1" source="f_G7LNEbFlK-3ISZZQ7I-1" target="f_G7LNEbFlK-3ISZZQ7I-28">
          <mxGeometry width="50" height="50" relative="1" as="geometry">
            <mxPoint x="390" y="420" as="sourcePoint" />
            <mxPoint y="190" as="targetPoint" />
          </mxGeometry>
        </mxCell>
        <mxCell id="f_G7LNEbFlK-3ISZZQ7I-30" value="" style="endArrow=classic;html=1;rounded=0;entryX=0.5;entryY=0;entryDx=0;entryDy=0;" edge="1" parent="1" target="f_G7LNEbFlK-3ISZZQ7I-25">
          <mxGeometry width="50" height="50" relative="1" as="geometry">
            <mxPoint y="322" as="sourcePoint" />
            <mxPoint x="440" y="370" as="targetPoint" />
          </mxGeometry>
        </mxCell>
      </root>
    </mxGraphModel>
  </diagram>
</mxfile>
